<?xml version="1.0"?>
<svg xmlns="http://www.w3.org/2000/svg" id="Capa_1" enable-background="new 0 0 512 512" height="512px" viewBox="0 0 512 512" width="512px"><g><g><path d="m352.862 77.01c-6.286-5.396-15.756-4.674-21.151 1.612-5.396 6.286-4.674 15.756 1.612 21.152 36.655 31.463 57.677 77.47 57.677 126.226s-21.022 94.763-57.677 126.226c-6.286 5.396-7.008 14.866-1.612 21.152 5.412 6.306 14.885 6.992 21.151 1.612 43.303-37.169 68.138-91.473 68.138-148.99s-24.835-111.821-68.138-148.99z" data-original="#000000" class="active-path" data-old_color="#000000" fill="#FFFFFF"/><path d="m331 226c0 30.793-13.723 60.958-36.709 80.688-6.286 5.396-7.008 14.866-1.612 21.152 5.404 6.296 14.874 7 21.152 1.612 29.977-25.731 47.169-63.438 47.169-103.452s-17.192-77.721-47.169-103.452c-6.287-5.396-15.756-4.674-21.152 1.612s-4.674 15.756 1.612 21.152c22.986 19.73 36.709 49.895 36.709 80.688z" data-original="#000000" class="active-path" data-old_color="#000000" fill="#FFFFFF"/><path d="m274.802 168.08c-6.286-5.396-15.758-4.674-21.151 1.613-5.396 6.286-4.674 15.756 1.612 21.152 9.707 8.331 15.737 21.802 15.737 35.155s-6.03 26.824-15.737 35.156c-6.286 5.396-7.008 14.866-1.612 21.152 5.414 6.307 14.886 6.992 21.151 1.613 16.404-14.081 26.198-35.734 26.198-57.921s-9.794-43.84-26.198-57.92z" data-original="#000000" class="active-path" data-old_color="#000000" fill="#FFFFFF"/><path d="m406 482h-165c-16.542 0-30-13.458-30-30h45c8.284 0 15-6.716 15-15v-90c0-8.284-6.716-15-15-15h-62.968c-5.441-20.843-12.032-56.343-12.032-106s6.591-85.157 12.032-106h62.968c8.284 0 15-6.716 15-15v-90c0-8.284-6.716-15-15-15h-75c-18.989 0-46.058 12.49-67.169 71.992-14.723 41.494-22.831 96.188-22.831 154.008s8.108 112.514 22.831 154.008c21.111 59.502 48.18 71.992 67.169 71.992 0 33.084 26.916 60 60 60h165c8.284 0 15-6.716 15-15s-6.716-15-15-15zm-263.896-112.023c-13.609-38.356-21.104-89.488-21.104-143.977s7.495-105.621 21.104-143.977c11.212-31.603 26.48-52.023 38.896-52.023h60v60h-59.287c-6.567 0-12.371 4.272-14.322 10.542-6.121 19.669-16.391 62.122-16.391 125.458s10.27 105.789 16.391 125.458c1.951 6.271 7.755 10.542 14.322 10.542h59.287v60h-60c-12.416 0-27.684-20.42-38.896-52.023z" data-original="#000000" class="active-path" data-old_color="#000000" fill="#FFFFFF"/></g></g> </svg>
