<svg xmlns="http://www.w3.org/2000/svg" width="116.236" height="51.538" viewBox="0 0 116.236 51.538">
  <path id="Path_23473" data-name="Path 23473" d="M115.354,0H64.5V2.84h50.855ZM34.3,26.784a10.978,10.978,0,0,1-7.841-2.728A10.024,10.024,0,0,1,24.1,20.533a10.145,10.145,0,0,1-.711-3.778,10.035,10.035,0,0,1,1.478-5.341q2.755-4.6,9.4-4.688a11.06,11.06,0,0,1,7.9,2.727,9.693,9.693,0,0,1,3.068,7.415,9.787,9.787,0,0,1-1.477,5.2q-2.87,4.717-9.461,4.717m7.074-9.944a6.422,6.422,0,0,0-2.273-5.2,7.339,7.339,0,0,0-4.8-1.648,7.033,7.033,0,0,0-4.773,1.648,6.432,6.432,0,0,0-2.273,5.114,6.348,6.348,0,0,0,2.273,5.085,7.073,7.073,0,0,0,4.8,1.648A7.032,7.032,0,0,0,39.1,21.84a6.261,6.261,0,0,0,1.733-2.386,6.663,6.663,0,0,0,.54-2.614m73.864,20.009a11.719,11.719,0,0,1,.994,5q0,5-2.983,7.643a7.554,7.554,0,0,1-2.969,1.577,16.6,16.6,0,0,1-4.333.469H96.262V32.161h9.688a14.253,14.253,0,0,1,5.37.8,7.772,7.772,0,0,1,3.921,3.892m-2.87,5a6.866,6.866,0,0,0-1.534-4.8,4.858,4.858,0,0,0-2.074-1.307,10.512,10.512,0,0,0-3.182-.4h-5.54V48.355h5.54a8.647,8.647,0,0,0,3.949-.71q2.842-1.477,2.841-5.8M92.917,26.443H88.883L86.5,21.5H77.4l-2.37,4.944H71.013L80.36,7.066h3.352Zm-7.732-7.586-3.263-6.9-3.32,6.9ZM10.068,26.443H.38V7.066h9.688a14.26,14.26,0,0,1,5.37.8,7.774,7.774,0,0,1,3.921,3.893,11.718,11.718,0,0,1,.994,5q0,5-2.983,7.643A7.558,7.558,0,0,1,14.4,25.974a16.6,16.6,0,0,1-4.333.469M9.7,23.26a8.651,8.651,0,0,0,3.949-.71q2.84-1.477,2.841-5.8a6.866,6.866,0,0,0-1.534-4.8,4.86,4.86,0,0,0-2.074-1.307,10.51,10.51,0,0,0-3.182-.4H4.159V23.26Zm102.218-3.21L99.16,7.066H95.751V26.443h3.437V13.174l13.1,13.268h3.069V7.066h-3.438ZM7.5,51.537h3.779V35.342h7.5V32.161H0v3.182H7.5Zm29.059-8.068,5.54,8.068H37.98l-5.455-7.9H27.013v7.9H23.235V32.161h11a18.5,18.5,0,0,1,3.466.256,6.12,6.12,0,0,1,2.216.881A4.578,4.578,0,0,1,41.5,35.314a7.045,7.045,0,0,1,.483,2.614q0,4.745-5.426,5.54M38.236,37.9a2.115,2.115,0,0,0-1.193-2.1,3.5,3.5,0,0,0-1.151-.37,17.755,17.755,0,0,0-2.116-.085H27.013v5.086h6.762a17.416,17.416,0,0,0,2.088-.085A4.311,4.311,0,0,0,37.042,40a2.148,2.148,0,0,0,1.193-2.1M54.052,0H.38v2.84H54.052ZM65.384,35.342V32.161H48V51.537H65.725V48.355H51.775V43.042h9.348v-3.1H51.775v-4.6Zm-17.1-18.588a9.294,9.294,0,0,0,3.665,7.813,12.056,12.056,0,0,0,7.529,2.216,18.473,18.473,0,0,0,9.546-2.614V16.783H59.73v2.7h6.251v2.642a13.4,13.4,0,0,1-2.87.994,14.154,14.154,0,0,1-3.21.369,8.222,8.222,0,0,1-5.455-1.733,6.064,6.064,0,0,1-2.3-4.943A6.283,6.283,0,0,1,54.5,11.7a7.806,7.806,0,0,1,5.171-1.7,13.434,13.434,0,0,1,3.409.5,11.955,11.955,0,0,1,3.58,1.634l1.193-3.069a6.4,6.4,0,0,0-1.7-.994,19.78,19.78,0,0,0-3.3-1.037,15.329,15.329,0,0,0-3.1-.3A12.351,12.351,0,0,0,51.52,9.339a9.239,9.239,0,0,0-3.239,7.415m39.137,28.39L74.661,32.161h-3.41V51.537H74.69V38.269l13.1,13.268h3.068V32.161H87.418Z" transform="translate(0 0.001)" fill="#fff"/>
</svg>
