<svg xmlns="http://www.w3.org/2000/svg" width="284.65" height="340.52" viewBox="0 0 284.65 340.52">
  <g id="EKSPERTIZ-ARACI" transform="translate(0 0.01)">
    <g id="SAG-TARAF">
      <path id="sag-hat" d="M284.5,41.08c-3.72-2.91-14.12-3.47-18.03-3.69-.6-.03-1.03-.06-1.26-.08-1.95-.19-17.26.44-20.18,8.2-5.56,9.81-11.83,52.79-12.24,55.6-.88,1.33-13.56,20.57-19.95,35.91-10.51,25.23-13.25,33.1-12.92,63.75.31,28.05,1.88,32.76,2.16,33.39,3.31,15.02,24.95,36.97,26.64,38.68.07,1.44.63,13.34.63,22.4,0,8.58,8.39,8.72,13.41,8.8.93.02,1.73.03,2.35.09.5.05.93.08,1.32.1,1.43.09,1.94.15,2.35.77l.56.85a.378.378,0,0,0,.07.08,3.836,3.836,0,0,0,2.28.84,41.4,41.4,0,0,1,6.49.85,49.22,49.22,0,0,0,8.16,1.01c4.2,0,8.7-1.77,10.29-14.91a11.512,11.512,0,0,1,1.64-4.33,15.284,15.284,0,0,0,2.02-5.3c.11-.7.22-1.6.32-2.68a.373.373,0,0,0-.12-.31.358.358,0,0,0-.31-.1,23.2,23.2,0,0,1-3.53.26,23.46,23.46,0,1,1,4.51-46.48.355.355,0,0,0,.31-.08.365.365,0,0,0,.14-.28l2.27-126.93a.388.388,0,0,0-.15-.31.393.393,0,0,0-.33-.06,23.461,23.461,0,1,1,.75-44.7.378.378,0,0,0,.34-.05.366.366,0,0,0,.16-.3V41.35a.389.389,0,0,0-.14-.3Zm-.61,20.5a24.21,24.21,0,1,0-7.25,47.31,24.328,24.328,0,0,0,6.47-.88l-2.26,125.98a24.211,24.211,0,1,0-1.05,47.84c-.08.85-.17,1.58-.27,2.15a14.858,14.858,0,0,1-1.93,5.06,12.174,12.174,0,0,0-1.73,4.6c-1.23,10.12-3.99,14.25-9.55,14.25a49.286,49.286,0,0,1-8.03-1,42.375,42.375,0,0,0-6.62-.86,3.022,3.022,0,0,1-1.75-.63l-.52-.8c-.63-.97-1.54-1.02-2.93-1.11-.38-.02-.81-.05-1.3-.1-.46-.05-1.01-.07-1.63-.08v-9.67a3.719,3.719,0,0,0-3.72-3.72h-3.83a3.719,3.719,0,0,0-3.72,3.72v7.15a7.014,7.014,0,0,1-2.19-5.55c0-9.64-.63-22.45-.64-22.58a.358.358,0,0,0-.11-.25c-.23-.23-23.2-23.11-26.55-38.45a.488.488,0,0,0-.04-.11c-.07-.13-1.77-3.61-2.09-33.09-.33-30.5,2.39-38.33,12.86-63.45,6.56-15.74,19.8-35.65,19.93-35.85a.471.471,0,0,0,.06-.15c.07-.46,6.61-45.62,12.19-55.47a7.1,7.1,0,0,1,1.37-2.22,3.557,3.557,0,0,0-.34.6v6.75a3.4,3.4,0,0,0,3.4,3.4h2.33a3.4,3.4,0,0,0,3.4-3.4V39.15a37.707,37.707,0,0,1,9.27-1.08c.23.02.68.05,1.29.08,3.8.21,13.81.75,17.46,3.42V61.59Zm-48.55,65.21-1.49,8.57c.7-2.64-.28,1.24-.28,2.69v.03a3.232,3.232,0,0,1-3.03,3.4h-.18a3.232,3.232,0,0,1-3.03-3.4v-3.8a3.232,3.232,0,0,1,3.03-3.4h.18a2.737,2.737,0,0,1,1.71.6l1.11-6.62c.15-.57.78-1.46,1.27-1.24l.83-.91c.49.23.03,3.52-.12,4.09Z" fill="#b1b1b1"/>
      <g id="on-camurluk">
        <path id="on-camurluk-2" data-name="on-camurluk" d="M237.19,99.83l.16-1.07c1.4-9.39,5.21-31.97,8.91-44.33a5.185,5.185,0,0,0,3.88,1.75h2.33a5.234,5.234,0,0,0,5.23-5.23V42.43a35.225,35.225,0,0,1,6.79-.77h.29c.26.03.76.06,1.45.09,8.06.44,12.06,1.27,14.04,1.99V57.07a27.4,27.4,0,0,0-3.62-.24,27.83,27.83,0,1,0,0,55.66c.93,0,1.85-.05,2.77-.14l-.04,2.18H235.69l-1.24-8.61,2.74-6.11Z" fill="#fff"/>
        <path id="on-camurluk-cizgi" d="M279.38,114.8H235.69a.257.257,0,0,1-.25-.21l-1.24-8.61a.486.486,0,0,1,.02-.14l2.73-6.08.15-1.04c1.49-10.01,5.27-32.16,8.92-44.36a.255.255,0,0,1,.18-.17.23.23,0,0,1,.24.08,4.911,4.911,0,0,0,3.69,1.67h2.33a4.987,4.987,0,0,0,4.98-4.98V42.44a.238.238,0,0,1,.2-.24,35.82,35.82,0,0,1,6.84-.77h.3c.27.03.77.06,1.46.09,6.7.36,11.45,1.04,14.11,2a.256.256,0,0,1,.17.23V57.08a.273.273,0,0,1-.08.19.232.232,0,0,1-.2.06,26.831,26.831,0,0,0-3.59-.23,27.58,27.58,0,1,0,0,55.16c.92,0,1.84-.05,2.75-.14a.243.243,0,0,1,.19.06.273.273,0,0,1,.08.19l-.04,2.18a.248.248,0,0,1-.25.25Zm-43.47-.5h43.23l.03-1.65c-.83.07-1.68.11-2.52.11a28.08,28.08,0,1,1,0-56.16,29.165,29.165,0,0,1,3.37.2V43.93c-1.87-.65-5.76-1.48-13.8-1.92-.69-.04-1.2-.07-1.46-.09h-.26a34.928,34.928,0,0,0-6.54.72v8.32a5.488,5.488,0,0,1-5.48,5.48h-2.33a5.477,5.477,0,0,1-3.76-1.52c-3.61,12.25-7.31,34-8.78,43.88l-.16,1.07a.143.143,0,0,1-.02.07l-2.71,6.04,1.2,8.32Zm1.28-14.47Z" fill="#b1b1b1"/>
        <circle id="sag-oncamurluk-ikon" cx="10" cy="10" r="10" transform="translate(241.17 66.45)" fill="#fff"/>
      </g>
      <g id="on-kapi">
        <path id="on-kapi-2" data-name="on-kapi" d="M205.15,189.37s16.52-2.83,22.34-3.66,16.41-2.49,23.28-2.55,26.85,1.3,26.85,1.3V123.69a20.529,20.529,0,0,0-.31-4.34c-.5-.99-1.69-1.99-4.43-2.12-5.54-.26-25.27-.24-33.84.27a14.992,14.992,0,0,0-8.89,4.94c-5.36,6.01-11.08,13.62-17.79,29.18-3.13,7.26-6.54,20.44-6.93,26.16-.36,5.27-.28,11.58-.28,11.58Zm3.2-12.15c6.25-37.98,27.12-54.52,27.12-54.52l-2.33,56.45-24.73,5.57s-1.03-1.6-.06-7.49Z" fill="#fff"/>
        <path id="on-kapi-cizgi" d="M205.15,189.62a.254.254,0,0,1-.25-.25c0-.06-.07-6.39.28-11.6.4-5.95,3.91-19.19,6.95-26.24,6.79-15.74,12.58-23.36,17.83-29.25a15.281,15.281,0,0,1,9.04-5.02c8.43-.5,28.1-.54,33.88-.27,2.95.14,4.15,1.3,4.64,2.25a19.288,19.288,0,0,1,.34,4.45v60.77a.234.234,0,0,1-.08.18.24.24,0,0,1-.19.07c-.2-.01-20.05-1.36-26.83-1.3-6.07.05-15.1,1.36-21.07,2.23l-2.17.31c-5.75.82-22.16,3.63-22.33,3.66h-.04Zm55.77-72.29c-7.72,0-16.82.13-21.87.44a14.742,14.742,0,0,0-8.72,4.85c-5.22,5.86-10.99,13.44-17.75,29.11-3.02,7.01-6.51,20.17-6.91,26.08-.31,4.56-.29,9.97-.28,11.27,2.23-.38,16.72-2.85,22.05-3.61l2.17-.31c5.99-.87,15.04-2.19,21.14-2.24h.42c6.7,0,23.83,1.13,26.18,1.29V123.7a21.01,21.01,0,0,0-.3-4.27c-.6-1.16-2.02-1.83-4.2-1.93-2.31-.11-6.82-.17-11.95-.17Zm-52.51,67.63a.261.261,0,0,1-.21-.11c-.04-.07-1.07-1.75-.1-7.67h0c3.24-19.66,10.46-33.48,15.94-41.6,5.95-8.81,11.21-13.03,11.27-13.08a.264.264,0,0,1,.27-.03.254.254,0,0,1,.14.23l-2.33,56.45a.235.235,0,0,1-.2.23l-24.73,5.57h-.05Zm.19-7.7c-.78,4.72-.25,6.64-.05,7.16l24.35-5.48,2.3-55.69c-3.01,2.63-20.93,19.58-26.6,54h0Z" fill="#b1b1b1"/>
        <circle id="sag-onkapi-ikon" cx="10" cy="10" r="10" transform="translate(241.17 141.47)" fill="#fff"/>
      </g>
      <g id="arka-kapi">
        <path id="arka-kapi-2" data-name="arka-kapi" d="M231.31,264.91l45.75-38.71.55-41.73s-19.98-1.36-26.85-1.3-17.46,1.72-23.28,2.55-22.34,3.66-22.34,3.66.23,42.24,4.21,48.88a67.5,67.5,0,0,0,15.46,17.18,13.423,13.423,0,0,0,2.1,1.31,18.19,18.19,0,0,0,4.08.11,7.65,7.65,0,0,0,3.42-.86,52.074,52.074,0,0,0,14.8-11.09,59.572,59.572,0,0,1,27.84-17.69v-1Zm-4.03-12.3c-5.53-3.1-13.81-12.09-15.59-16.68-3.8-9.84-3.76-44.25-3.76-44.25l25.22-2.45-1.72,59.4s-.12,3.99-.57,3.99c-.9,0-2.32.71-3.59,0Z" fill="#fff"/>
        <path id="arka-kapi-cizgi" d="M229.19,257.15a9.7,9.7,0,0,1-2.37-.18,12.108,12.108,0,0,1-2.15-1.34,67.921,67.921,0,0,1-15.52-17.25c-3.97-6.62-4.24-47.28-4.25-49.01a.257.257,0,0,1,.21-.25c.17-.03,16.59-2.84,22.34-3.66l2.17-.31c5.99-.87,15.04-2.19,21.14-2.24,6.82-.04,26.67,1.29,26.87,1.31a.237.237,0,0,1,.23.25l-.55,42.73a.238.238,0,0,1-.19.24,60,60,0,0,0-27.71,17.62c-4,4.54-11.06,9.53-14.89,11.16a7.8,7.8,0,0,1-3.49.88c-.4.03-1.11.05-1.84.05ZM205.4,189.58c.03,3.25.42,42.28,4.18,48.54a67.12,67.12,0,0,0,15.4,17.11,11.479,11.479,0,0,0,2.06,1.28,18.584,18.584,0,0,0,3.96.08,7.485,7.485,0,0,0,3.34-.84,52.064,52.064,0,0,0,14.71-11.03A60.66,60.66,0,0,1,276.83,227v-.81h0l.55-41.5c-2.27-.15-20.22-1.34-26.6-1.29-6.07.05-15.1,1.36-21.07,2.23l-2.17.31c-5.39.77-20.18,3.29-22.12,3.62Zm71.66,37.62Zm-48.49,25.98a2.869,2.869,0,0,1-1.42-.35h0c-5.49-3.08-13.86-12.04-15.7-16.81-3.77-9.77-3.77-44-3.77-44.35a.251.251,0,0,1,.23-.25l25.22-2.45a.288.288,0,0,1,.2.07.273.273,0,0,1,.08.19l-1.72,59.4c-.13,4.23-.59,4.23-.82,4.23h0a4.658,4.658,0,0,0-.89.13,6.761,6.761,0,0,1-1.4.19Zm-1.17-.79a3.464,3.464,0,0,0,2.47.11,5.31,5.31,0,0,1,.91-.14,16.951,16.951,0,0,0,.4-3.75l1.71-59.11-24.71,2.4c0,3,.16,34.67,3.74,43.94,1.78,4.6,10.17,13.57,15.48,16.55Z" fill="#b1b1b1"/>
        <circle id="sag-arkakapi-ikon" cx="10" cy="10" r="10" transform="translate(241.17 199.31)" fill="#fff"/>
      </g>
      <g id="arka-camurluk">
        <path id="arka-camurluk-parca" d="M266.34,304.51a46.224,46.224,0,0,1-7.43-.95,49.448,49.448,0,0,0-6.6-.9.214.214,0,0,1-.19-.11c-1.55-2.19-3.87-2.34-5.4-2.44-.36-.02-.74-.05-1.17-.09a.251.251,0,0,1-.23-.25v-6.14a5.471,5.471,0,0,0-5.47-5.47h-3.83a5.47,5.47,0,0,0-2.27.5.18.18,0,0,1-.1.02.2.2,0,0,1-.13-.04.244.244,0,0,1-.12-.21c-.17-7-.54-15.68-.56-16.02l-.08-1.29-.67-.75c-.13-.04-.36-.3-1.69-1.9a.252.252,0,0,1-.06-.17l.18-7.53a.24.24,0,0,1,.22-.24c4.57-.49,18.9-10.59,19.04-10.69a.239.239,0,0,1,.14-.05.3.3,0,0,1,.15.05.258.258,0,0,1,.1.27,27.6,27.6,0,0,0,25.16,35.25.24.24,0,0,1,.2.12.268.268,0,0,1,.02.23c-.26.57-.57,1.14-.87,1.69a15.509,15.509,0,0,0-2.12,5.81c-1.37,11.28-4.39,11.28-6.2,11.28Z" fill="#fff"/>
        <path id="arka-camurluk-cizgi" d="M249.92,250.05h0m0,0a27.853,27.853,0,0,0,25.38,35.57c-.25.55-.54,1.08-.86,1.67a15.619,15.619,0,0,0-2.15,5.9c-1.34,11.06-4.23,11.06-5.95,11.06a47.117,47.117,0,0,1-7.39-.94,49.627,49.627,0,0,0-6.63-.9c-1.62-2.29-4-2.44-5.59-2.55-.34-.02-.73-.05-1.16-.09v-6.14a5.725,5.725,0,0,0-5.72-5.72h-3.83a5.668,5.668,0,0,0-2.37.52c-.17-7.02-.54-15.71-.56-16.03l-.09-1.38-.92-1.03h0s.1.14.08.14a19.7,19.7,0,0,1-1.57-1.82l.18-7.53c4.68-.5,19.16-10.74,19.16-10.74m0-.49h0a.552.552,0,0,0-.29.09c-.32.23-14.45,10.17-18.92,10.65a.506.506,0,0,0-.45.49l-.18,7.53a.5.5,0,0,0,.12.33,12.532,12.532,0,0,0,1.74,1.96l.57.64.08,1.2c.02.33.38,8.98.56,16.01a.487.487,0,0,0,.23.41.5.5,0,0,0,.26.08.537.537,0,0,0,.21-.05,5.109,5.109,0,0,1,2.16-.48h3.83a5.224,5.224,0,0,1,5.22,5.22v6.14a.5.5,0,0,0,.45.5c.42.04.79.07,1.13.09h.05c1.58.1,3.74.24,5.22,2.34a.471.471,0,0,0,.39.21,49.272,49.272,0,0,1,6.57.9,46.787,46.787,0,0,0,7.48.95c2.44,0,5.16-.89,6.45-11.5a15.162,15.162,0,0,1,2.09-5.72c.31-.56.62-1.13.88-1.71a.491.491,0,0,0-.03-.47.519.519,0,0,0-.4-.24,27.348,27.348,0,0,1-24.94-34.89.584.584,0,0,0,.04-.18.5.5,0,0,0-.5-.5h0Zm-.01,1Z" fill="#b1b1b1"/>
        <circle id="sag-arkacamurluk-ikon" cx="10" cy="10" r="10" transform="translate(241.17 267.15)" fill="#fff"/>
      </g>
    </g>
    <g id="SOL-TARAF">
      <path id="sol-hat" d="M0,41.37V62.09a.366.366,0,0,0,.16.3.378.378,0,0,0,.34.05,23.459,23.459,0,1,1,.75,44.7.387.387,0,0,0-.33.06.375.375,0,0,0-.15.31L3.04,234.44a.35.35,0,0,0,.14.28.388.388,0,0,0,.31.08A23.459,23.459,0,1,1,8,281.28a24.662,24.662,0,0,1-3.53-.26.358.358,0,0,0-.31.1.393.393,0,0,0-.12.31c.1,1.08.2,1.98.32,2.68a15.206,15.206,0,0,0,2.02,5.3,11.449,11.449,0,0,1,1.64,4.33c1.59,13.14,6.1,14.91,10.29,14.91a49.22,49.22,0,0,0,8.16-1.01,41.4,41.4,0,0,1,6.49-.85,3.767,3.767,0,0,0,2.28-.84.269.269,0,0,0,.07-.08l.56-.85c.4-.62.92-.68,2.35-.77.39-.02.83-.05,1.32-.1.62-.06,1.42-.08,2.35-.09,5.02-.08,13.41-.23,13.41-8.8,0-9.07.56-20.96.63-22.4,1.7-1.7,23.33-23.66,26.64-38.68.28-.62,1.85-5.34,2.16-33.39.33-30.65-2.4-38.52-12.92-63.75-6.39-15.34-19.07-34.58-19.95-35.91-.41-2.81-6.68-45.79-12.24-55.6-2.92-7.75-18.23-8.39-20.18-8.2-.22.02-.66.05-1.26.08-3.91.21-14.31.78-18.03,3.69A.3.3,0,0,0,0,41.37Zm.75.19c3.66-2.67,13.67-3.21,17.46-3.42.61-.03,1.06-.06,1.29-.08a37.188,37.188,0,0,1,9.27,1.08V50.96a3.4,3.4,0,0,0,3.4,3.4H34.5a3.4,3.4,0,0,0,3.4-3.4V44.21a3.558,3.558,0,0,0-.34-.6,7.288,7.288,0,0,1,1.37,2.22c5.58,9.85,12.12,55.02,12.19,55.47a.253.253,0,0,0,.06.15c.13.2,13.37,20.11,19.93,35.85,10.47,25.12,13.19,32.95,12.86,63.45-.32,29.47-2.02,32.95-2.09,33.09a.21.21,0,0,0-.04.11c-3.35,15.34-26.32,38.22-26.55,38.45a.341.341,0,0,0-.11.25c0,.13-.64,12.95-.64,22.58a6.982,6.982,0,0,1-2.19,5.55v-7.15a3.719,3.719,0,0,0-3.72-3.72H44.8a3.719,3.719,0,0,0-3.72,3.72v9.67c-.62.01-1.16.03-1.63.08-.49.05-.92.08-1.3.1-1.38.09-2.3.15-2.93,1.11l-.52.8a3.087,3.087,0,0,1-1.75.63,42.378,42.378,0,0,0-6.62.86,49.152,49.152,0,0,1-8.03,1c-5.55,0-8.32-4.13-9.55-14.25a12.071,12.071,0,0,0-1.73-4.6,14.655,14.655,0,0,1-1.93-5.06c-.09-.58-.18-1.3-.27-2.15a23.994,23.994,0,0,0,3.17.21,24.21,24.21,0,1,0-4.22-48.05L1.52,108A24.21,24.21,0,1,0,7.99,60.46,24.109,24.109,0,0,0,.74,61.57V41.55ZM49.18,122.7l.83.91c.49-.23,1.12.67,1.27,1.24l1.11,6.62a2.779,2.779,0,0,1,1.71-.6h.18a3.232,3.232,0,0,1,3.03,3.4v3.8a3.232,3.232,0,0,1-3.03,3.4H54.1a3.232,3.232,0,0,1-3.03-3.4v-.03c0-1.45-.98-5.33-.28-2.69l-1.49-8.57c-.15-.57-.62-3.86-.12-4.09Z" fill="#b1b1b1"/>
      <g id="on-camurluk-3" data-name="on-camurluk">
        <path id="on-camurluk-4" data-name="on-camurluk" d="M47.46,99.83l-.16-1.07c-1.4-9.39-5.21-31.97-8.91-44.33a5.185,5.185,0,0,1-3.88,1.75H32.18a5.234,5.234,0,0,1-5.23-5.23V42.43a35.225,35.225,0,0,0-6.79-.77h-.29c-.26.03-.76.06-1.45.09-8.06.44-12.06,1.27-14.04,1.99V57.07A27.4,27.4,0,0,1,8,56.83a27.83,27.83,0,1,1,0,55.66c-.93,0-1.85-.05-2.77-.14l.04,2.18H48.96l1.24-8.61-2.74-6.11Z" fill="#fff"/>
        <path id="on-camurluk-cizgi-2" data-name="on-camurluk-cizgi" d="M5.01,114.55l-.04-2.18a.273.273,0,0,1,.08-.19.2.2,0,0,1,.19-.06c.91.09,1.83.14,2.75.14a27.58,27.58,0,0,0,0-55.16,28.723,28.723,0,0,0-3.59.23.252.252,0,0,1-.2-.06.236.236,0,0,1-.08-.19V43.75a.246.246,0,0,1,.17-.23c2.66-.97,7.41-1.64,14.11-2,.68-.04,1.18-.07,1.46-.09h.3A35.646,35.646,0,0,1,27,42.2a.245.245,0,0,1,.2.24v8.52a4.987,4.987,0,0,0,4.98,4.98h2.33a4.9,4.9,0,0,0,3.69-1.67.243.243,0,0,1,.24-.08.24.24,0,0,1,.18.17c3.65,12.2,7.43,34.35,8.92,44.36l.15,1.04,2.73,6.08a.371.371,0,0,1,.02.14l-1.24,8.61a.249.249,0,0,1-.25.21H5.26A.248.248,0,0,1,5.01,114.55Zm44.93-8.57-2.71-6.04a.2.2,0,0,1-.02-.07l-.16-1.07c-1.47-9.89-5.18-31.63-8.78-43.88a5.477,5.477,0,0,1-3.76,1.52H32.18a5.488,5.488,0,0,1-5.48-5.48V42.64a34.928,34.928,0,0,0-6.54-.72H19.9c-.26.03-.77.06-1.46.09-8.04.44-11.94,1.27-13.8,1.92V56.8a29.165,29.165,0,0,1,3.37-.2,28.08,28.08,0,0,1,0,56.16c-.84,0-1.68-.04-2.52-.11l.03,1.65H48.75l1.2-8.32Zm-2.49-6.15Z" fill="#b1b1b1"/>
        <circle id="sol-oncamurluk-ikon" cx="10" cy="10" r="10" transform="translate(23.26 66.45)" fill="#fff"/>
      </g>
      <g id="on-kapi-3" data-name="on-kapi">
        <path id="on-kapi-4" data-name="on-kapi" d="M79.21,177.79c-.39-5.72-3.8-18.9-6.93-26.16-6.71-15.56-12.43-23.17-17.79-29.18a15.111,15.111,0,0,0-8.89-4.94c-8.57-.51-28.3-.53-33.84-.27-2.73.13-3.92,1.13-4.43,2.12a20.412,20.412,0,0,0-.31,4.34v60.77s19.98-1.36,26.85-1.3,17.46,1.72,23.28,2.55,22.34,3.66,22.34,3.66.08-6.32-.28-11.58Zm-2.98,6.92-13.606-3.064L55,179.927l-3.5-.787-2.33-56.45s20.87,16.54,27.12,54.52c.97,5.89-.06,7.49-.06,7.49Z" fill="#fff"/>
        <path id="on-kapi-cizgi-2" data-name="on-kapi-cizgi" d="M79.45,189.62c-.17-.03-16.58-2.84-22.33-3.66l-2.17-.31c-5.97-.87-15-2.18-21.07-2.23-6.78-.06-26.63,1.29-26.83,1.3a.281.281,0,0,1-.19-.07.25.25,0,0,1-.08-.18V123.7a19.288,19.288,0,0,1,.34-4.45c.49-.95,1.69-2.12,4.64-2.25,5.79-.27,25.45-.23,33.88.27a15.23,15.23,0,0,1,9.04,5.02c5.25,5.89,11.04,13.51,17.83,29.25,3.04,7.05,6.55,20.29,6.95,26.24.35,5.21.28,11.54.28,11.6a.254.254,0,0,1-.25.25h-.04ZM11.78,117.49c-2.18.1-3.6.77-4.2,1.93a21.009,21.009,0,0,0-.3,4.27V184.2c2.35-.16,19.48-1.29,26.18-1.29h.42c6.1.05,15.15,1.37,21.14,2.24l2.17.31c5.33.76,19.82,3.23,22.05,3.61,0-1.3.03-6.72-.28-11.27-.4-5.91-3.88-19.07-6.91-26.08-6.76-15.68-12.53-23.26-17.75-29.11a14.742,14.742,0,0,0-8.72-4.85c-5.05-.3-14.15-.44-21.87-.44-5.12,0-9.64.06-11.95.17Zm64.4,67.47-24.73-5.57a.255.255,0,0,1-.2-.23l-2.33-56.45a.244.244,0,0,1,.14-.23.264.264,0,0,1,.27.03c.05.04,5.32,4.26,11.27,13.08,5.49,8.13,12.71,21.94,15.94,41.6h0c.97,5.92-.05,7.6-.1,7.67a.261.261,0,0,1-.21.11h-.05Zm-.14-7.7c-5.66-34.43-23.59-51.37-26.6-54l2.3,55.69,24.35,5.48c.2-.52.73-2.45-.05-7.16h0Z" fill="#b1b1b1"/>
        <circle id="sol-onkapi-ikon" cx="10" cy="10" r="10" transform="translate(23.26 141.47)" fill="#fff"/>
      </g>
      <g id="arka-kapi-3" data-name="arka-kapi">
        <path id="arka-kapi-4" data-name="arka-kapi" d="M53.33,264.91,7.58,227.2a59.671,59.671,0,0,1,27.84,17.69c4.11,4.67,11.26,9.59,14.8,11.09a7.65,7.65,0,0,0,3.42.86,18.168,18.168,0,0,0,4.08-.11,11.323,11.323,0,0,0,2.1-1.31,67.88,67.88,0,0,0,15.46-17.18c3.98-6.64,4.21-48.88,4.21-48.88s-16.52-2.83-22.34-3.66-16.41-2.49-23.28-2.55-26.85,1.3-26.85,1.3l.55,41.73v1Zm.45-12.3c-.44,0-.57-3.99-.57-3.99l-1.72-59.4,25.22,2.45s.04,34.42-3.76,44.25c-1.78,4.6-10.06,13.58-15.59,16.68-1.27.71-2.69,0-3.59,0Z" fill="#fff"/>
        <path id="arka-kapi-cizgi-2" data-name="arka-kapi-cizgi" d="M53.62,257.1a7.764,7.764,0,0,1-3.49-.88c-3.83-1.63-10.89-6.61-14.89-11.16A60,60,0,0,0,7.53,227.44a.255.255,0,0,1-.19-.24l-.55-42.73a.251.251,0,0,1,.23-.25c.2-.01,20.05-1.34,26.87-1.31,6.1.05,15.15,1.37,21.14,2.24l2.17.31c5.76.82,22.18,3.63,22.34,3.66a.257.257,0,0,1,.21.25c0,1.73-.28,42.39-4.25,49.01a67.921,67.921,0,0,1-15.52,17.25,13.147,13.147,0,0,1-2.15,1.34,9.208,9.208,0,0,1-2.37.18c-.72,0-1.43-.02-1.84-.05Zm3.5-71.14-2.17-.31c-5.97-.87-15-2.18-21.07-2.23-6.38-.06-24.33,1.14-26.6,1.29l.55,41.49h0v.81a60.759,60.759,0,0,1,27.78,17.72,52.258,52.258,0,0,0,14.71,11.03,7.228,7.228,0,0,0,3.34.84,20.058,20.058,0,0,0,3.96-.08,11.841,11.841,0,0,0,2.06-1.28,67.488,67.488,0,0,0,15.4-17.11c3.75-6.27,4.15-45.29,4.18-48.54-1.94-.33-16.72-2.85-22.12-3.62ZM7.57,227.2Zm47.1,25.79a4.658,4.658,0,0,0-.89-.13h0c-.22,0-.69,0-.82-4.23l-1.72-59.4a.273.273,0,0,1,.08-.19.258.258,0,0,1,.2-.07l25.22,2.45a.251.251,0,0,1,.23.25c0,.34,0,34.58-3.77,44.35-1.84,4.77-10.21,13.73-15.7,16.81h0a2.869,2.869,0,0,1-1.42.35,6.668,6.668,0,0,1-1.4-.19Zm2.57-.6c5.31-2.98,13.7-11.95,15.48-16.55,3.58-9.27,3.73-40.94,3.74-43.94l-24.71-2.4,1.71,59.11a16.952,16.952,0,0,0,.4,3.75,5.463,5.463,0,0,1,.91.14,3.462,3.462,0,0,0,2.47-.11Z" fill="#b1b1b1"/>
        <circle id="sol-arkakapi-ikon" cx="10" cy="10" r="10" transform="translate(23.26 199.31)" fill="#fff"/>
      </g>
      <g id="arka-camurluk-2" data-name="arka-camurluk">
        <path id="arka-camurluk-parca-2" data-name="arka-camurluk-parca" d="M18.3,304.51a46.225,46.225,0,0,0,7.43-.95,49.448,49.448,0,0,1,6.6-.9.214.214,0,0,0,.19-.11c1.55-2.19,3.87-2.34,5.4-2.44.36-.02.74-.05,1.17-.09a.251.251,0,0,0,.23-.25v-6.14a5.471,5.471,0,0,1,5.47-5.47h3.83a5.47,5.47,0,0,1,2.27.5.18.18,0,0,0,.1.02.2.2,0,0,0,.13-.04.244.244,0,0,0,.12-.21c.17-7,.54-15.68.56-16.02l.08-1.29.67-.75c.13-.04.36-.3,1.69-1.9a.252.252,0,0,0,.06-.17l-.18-7.53a.24.24,0,0,0-.22-.24c-4.57-.49-18.9-10.59-19.04-10.69a.239.239,0,0,0-.14-.05.3.3,0,0,0-.15.05.258.258,0,0,0-.1.27,27.344,27.344,0,0,1,1.09,7.7A27.549,27.549,0,0,1,9.31,285.36a.24.24,0,0,0-.2.12.268.268,0,0,0-.02.23c.26.57.57,1.14.87,1.69a15.509,15.509,0,0,1,2.12,5.81c1.37,11.28,4.39,11.28,6.2,11.28Z" fill="#fff"/>
        <path id="arka-camurluk-cizgi-2" data-name="arka-camurluk-cizgi" d="M34.72,250.05h0m0,0s14.48,10.24,19.16,10.74l.18,7.53a22.131,22.131,0,0,1-1.57,1.82c-.02,0,.08-.14.08-.14h0l-.92,1.03-.09,1.38c-.02.31-.39,9.01-.56,16.03a5.668,5.668,0,0,0-2.37-.52H44.8a5.732,5.732,0,0,0-5.72,5.72v6.14c-.43.04-.82.07-1.16.09-1.59.1-3.97.25-5.59,2.55a50.86,50.86,0,0,0-6.63.9,47.117,47.117,0,0,1-7.39.94c-1.72,0-4.61,0-5.95-11.06a15.554,15.554,0,0,0-2.15-5.9c-.32-.59-.62-1.12-.86-1.67a27.872,27.872,0,0,0,26.48-27.8,28,28,0,0,0-1.1-7.77m-.01-.51a.5.5,0,0,0-.5.5.366.366,0,0,0,.04.18A27.348,27.348,0,0,1,9.32,285.12a.467.467,0,0,0-.4.24.491.491,0,0,0-.03.47c.26.58.58,1.15.88,1.71a15.162,15.162,0,0,1,2.09,5.72c1.29,10.61,4,11.5,6.45,11.5a46.787,46.787,0,0,0,7.48-.95,52.531,52.531,0,0,1,6.57-.9.471.471,0,0,0,.39-.21c1.48-2.1,3.64-2.23,5.22-2.34h.05c.33-.03.71-.05,1.13-.09a.5.5,0,0,0,.45-.5v-6.14a5.224,5.224,0,0,1,5.22-5.22h3.83a5.076,5.076,0,0,1,2.16.48.537.537,0,0,0,.21.05.5.5,0,0,0,.26-.08.487.487,0,0,0,.23-.41c.17-7.02.54-15.68.56-16.01l.08-1.2.57-.64a12.532,12.532,0,0,0,1.74-1.96.5.5,0,0,0,.12-.33l-.18-7.53a.506.506,0,0,0-.45-.49c-4.47-.48-18.6-10.42-18.92-10.65a.476.476,0,0,0-.29-.09h0Zm0,1Z" fill="#b1b1b1"/>
        <circle id="sol-arkacamurluk-ikon" cx="10" cy="10" r="10" transform="translate(23.26 267.15)" fill="#fff"/>
      </g>
    </g>
    <g id="UST">
      <path id="Gövde-hat" d="M111.48,156.96a.387.387,0,0,0,.09-.01c36.31-8.63,64.59-.09,64.87,0a.391.391,0,0,0,.3-.03.365.365,0,0,0,.18-.24l6.76-31.13a.379.379,0,0,0-.23-.43c-42.11-16.16-79.68,1.05-80.05,1.23a.378.378,0,0,0-.2.44l7.93,29.91a.372.372,0,0,0,.36.28Zm71.39-31.27-6.61,30.42c-3.54-1-30.48-7.97-64.52.02l-7.75-29.25C107.52,125.33,143.12,110.57,182.87,125.69Zm10.94,10.08-2.31-1.47.35-67.44c0-.16.34-16.23-7.87-24.56a17.026,17.026,0,0,0-12.8-5.01c-21.93.28-24.34.06-24.59.02a.5.5,0,0,0-.12-.02h-7.93a.352.352,0,0,0-.12.02c-.25.04-2.67.26-24.59-.02a16.831,16.831,0,0,0-12.66,4.95c-8.25,8.31-8.01,24.45-8.01,24.61l.35,67.23-2.63,1.67a3.882,3.882,0,0,0-2.25,4.17l.03.15c.23,1.01,1.04,2.1,3.62,1.55l1.26-.27.55,106.69c.07,1.58,1.64,38.74,2.34,43.81.04.29.08.58.11.86.59,4.66,1.05,8.35,16.04,11.61,15.5,3.38,24.74,2.69,24.79,2.68s1.74.06,4.49.06c6.67,0,19.61-.35,30.58-2.75,14.99-3.27,15.45-6.95,16.04-11.61.04-.28.07-.57.11-.86.69-5.07,2.27-42.23,2.34-43.82l.55-106.61.91.19c2.58.55,3.4-.54,3.62-1.55l.03-.15h0a3.866,3.866,0,0,0-2.22-4.15Zm1.48,3.98-.03.15c-.08.37-.33,1.49-2.73.98l-1.36-.29a.374.374,0,0,0-.31.07.4.4,0,0,0-.14.29L190.17,248c-.02.39-1.64,38.71-2.33,43.74-.04.29-.08.58-.11.87-.41,3.29-.75,5.91-6.38,8.31a10.856,10.856,0,0,0-5.19-1.31,10.152,10.152,0,0,0-8.96,4.92,177.714,177.714,0,0,1-29.85,1.72c-.08,0-6.74.49-18.2-1.44a10.06,10.06,0,0,0-9.1-5.21,10.817,10.817,0,0,0-5.71,1.59c-6.28-2.47-6.62-5.17-7.05-8.58-.04-.29-.07-.58-.11-.87-.69-5.03-2.31-43.35-2.33-43.73L94.3,140.87a.37.37,0,0,0-.14-.29.349.349,0,0,0-.31-.07l-1.71.36c-2.39.51-2.65-.61-2.73-.98l-.03-.15a3.153,3.153,0,0,1,1.89-3.35l2.83-1.8a.373.373,0,0,0,.17-.32l-.35-67.44c0-.16-.23-15.99,7.8-24.07.17-.17.36-.32.53-.49a10.337,10.337,0,0,0,8.44,4.09c5.34,0,9.69-3.66,9.94-8.25,14.04.14,17.17.02,17.93-.1l7.93.02v-.02c.77.12,4,.24,18.63.09.25,4.6,4.6,8.26,9.95,8.26,3.12,0,5.99-2.05,7.83-4.08.19.18.39.34.58.53,7.99,8.1,7.66,23.86,7.65,24.02l-.35,67.65a.4.4,0,0,0,.17.32l2.52,1.6a3.142,3.142,0,0,1,1.86,3.34Zm-85.54,25.29c-.35-3.82-9.42-34.87-9.81-36.19a.382.382,0,0,0-.41-.27.368.368,0,0,0-.32.37v116a.375.375,0,0,0,.28.36c.03,0,.06.01.09.01a.364.364,0,0,0,.33-.2c.37-.7,9.13-17.25,9.83-21.64.71-4.43.35-54.71,0-58.46Zm-.74,58.34c-.57,3.56-6.9,15.93-9.05,20.06V131.59c2.23,7.68,8.76,30.39,9.05,33.52C109.35,168.85,109.72,218.97,109.01,223.38Zm66.72,16.99a.37.37,0,0,0-.36-.25H112.64a.376.376,0,0,0-.35.24l-6.53,16.54a.373.373,0,0,0,.02.31.347.347,0,0,0,.25.19,193.739,193.739,0,0,0,38.13,3.55,186.269,186.269,0,0,0,36.89-3.55.361.361,0,0,0,.25-.18.416.416,0,0,0,.03-.31Zm-69.11,16.38,6.27-15.89H175.1l5.37,15.88c-36.4,7.31-69.72.87-73.86,0ZM187,128.58a.372.372,0,0,0-.41.27c-.39,1.32-9.46,32.36-9.81,36.19-.34,3.75-.7,54.03,0,58.46.7,4.39,9.46,20.94,9.83,21.64a.383.383,0,0,0,.33.2.277.277,0,0,0,.09-.01.364.364,0,0,0,.28-.36v-116a.376.376,0,0,0-.32-.37Zm-.43,114.86c-2.15-4.12-8.48-16.5-9.05-20.06-.7-4.41-.34-54.54,0-58.27.29-3.12,6.82-25.84,9.05-33.52Z" fill="#b1b1b1"/>
      <g id="BAGAJ">
        <path id="bagaj-ekspertiz-parca" d="M186.27,261.65c-.16.02-.3.04-.46.05l.06-.05s-.2.04-.57.11a387.092,387.092,0,0,1-42.37,2.89,387.092,387.092,0,0,1-42.37-2.89l-.57-.11.06.05c-.16-.02-.3-.03-.46-.05l.95,27.72s-.71,8.51,23.64,10.46c7.99.64,9.85.81,13.01.96.16.07,3.93.28,5.75.24a10.4,10.4,0,0,0,2.59-.09c3.16-.15,8.19-.47,16.17-1.11,24.35-1.95,23.64-10.46,23.64-10.46l.95-27.72Z" fill="#fff"/>
        <path id="bagaj-cizgi" d="M143.92,301.29c-.28,0-.61,0-1-.01-1.43.04-5.13-.13-5.76-.24-2.56-.12-4.34-.26-9.08-.65l-3.93-.32c-14.37-1.15-20.1-4.59-22.37-7.27a5.133,5.133,0,0,1-1.49-3.46l-.95-27.69a.273.273,0,0,1,.08-.19.242.242,0,0,1,.2-.06l.25.03a.249.249,0,0,1,.17-.03l.56.11a386.852,386.852,0,0,0,42.33,2.88,385.127,385.127,0,0,0,42.34-2.89l.54-.11a.249.249,0,0,1,.17.03l.25-.03a.242.242,0,0,1,.2.06.273.273,0,0,1,.08.19l-.95,27.72a5.243,5.243,0,0,1-1.5,3.43c-2.28,2.68-8.01,6.12-22.38,7.27-7.04.56-12.47.94-16.14,1.11a6.131,6.131,0,0,1-1.64.11Zm-1-.51a10.6,10.6,0,0,0,2.49-.07.292.292,0,0,1,.09-.02c3.66-.17,9.1-.54,16.17-1.11,23.74-1.9,23.42-10.11,23.41-10.19l.93-27.46-.17.02a.352.352,0,0,1-.12-.02c-.09.02-.22.04-.37.07a386.71,386.71,0,0,1-42.42,2.89A388.68,388.68,0,0,1,100.52,262c-.16-.03-.29-.06-.39-.08a.254.254,0,0,1-.12.02l-.17-.02.94,27.43c0,.11-.33,8.32,23.41,10.22l3.93.32c4.87.39,6.51.53,9.07.65a.149.149,0,0,1,.09.02c.26.06,3.86.26,5.64.22Z" fill="#b1b1b1"/>
        <circle id="bagaj-ikon" cx="10" cy="10" r="10" transform="translate(133.4 272.37)" fill="#fff"/>
      </g>
      <g id="TAVAN">
        <path id="tavan-parca" d="M113.85,229.73c38.23,11.31,59.72,0,59.72,0V163.55c-38.23-11.31-59.72,0-59.72,0v66.18Z" fill="#fff"/>
        <path id="tavan-cizgi" d="M146.21,234.97a114.294,114.294,0,0,1-32.43-5,.246.246,0,0,1-.18-.24V163.55a.248.248,0,0,1,.13-.22c.22-.11,22.02-11.23,59.91-.02a.246.246,0,0,1,.18.24v66.18a.248.248,0,0,1-.13.22c-.14.08-9.85,5.02-27.48,5.02Zm-32.11-5.43c36.03,10.6,57.34.94,59.22.03V163.73c-36.03-10.6-57.34-.94-59.22-.03v65.84Z" fill="#b1b1b1"/>
        <circle id="tavan-ikon" cx="10" cy="10" r="10" transform="translate(134.4 184.91)" fill="#fff"/>
      </g>
      <g id="KAPUT">
        <path id="kaput-parca" d="M120.8,47.88c-19.84-1-20.29,23.1-20.29,23.1l-.93,47.54c56.67-17.15,85.59,0,85.59,0l-.93-47.54s.16-23.55-20.29-23.1H120.81Z" fill="#fff"/>
        <path id="kaput-cizgi" d="M99.58,118.77a.269.269,0,0,1-.15-.05.261.261,0,0,1-.1-.2l.93-47.54c0-.12.31-12.27,7.48-18.97,3.4-3.17,7.79-4.64,13.06-4.38h43.14c5.59-.13,10.2,1.54,13.66,4.94,6.88,6.78,6.88,18.3,6.88,18.41l.93,47.53a.261.261,0,0,1-.12.22.227.227,0,0,1-.25,0c-.29-.17-29.49-16.89-85.39.02-.02,0-.05.01-.07.01ZM119.63,48.1a16.326,16.326,0,0,0-11.54,4.28c-7.02,6.55-7.32,18.49-7.33,18.61l-.93,47.19c29.15-8.77,50.79-8.29,63.83-6.34,12.38,1.85,19.56,5.36,21.25,6.25l-.92-47.1c0-.12,0-11.44-6.74-18.06-3.36-3.3-7.81-4.93-13.3-4.8H120.79c-.39-.02-.78-.03-1.16-.03Z" fill="#b1b1b1"/>
        <circle id="Kaput-ikon" cx="10" cy="10" r="10" transform="translate(133.4 66.45)" fill="#fff"/>
      </g>
    </g>
    <g id="ARKA-TAMPON">
      <path id="arka-tampon-hat" d="M183.74,340.5H101.02a4.841,4.841,0,0,1-4.63-3.54c-.57-2.71-1.16-7.78-1.74-12.67-.37-3.15-.72-6.13-1.04-8.3a1.372,1.372,0,0,1,.3-1.1,1.62,1.62,0,0,1,1.27-.52H189.6a1.613,1.613,0,0,1,1.26.52,1.346,1.346,0,0,1,.3,1.1c-.35,2.44-.72,5.58-1.08,8.62-.56,4.74-1.14,9.65-1.7,12.36a4.841,4.841,0,0,1-4.63,3.54ZM95.17,314.87a1.123,1.123,0,0,0-.89.35.859.859,0,0,0-.19.7c.32,2.17.67,5.16,1.05,8.31.58,4.88,1.17,9.94,1.73,12.63a4.319,4.319,0,0,0,4.14,3.14h82.72a4.31,4.31,0,0,0,4.14-3.14c.56-2.69,1.14-7.58,1.69-12.32.36-3.04.73-6.19,1.08-8.63a.859.859,0,0,0-.19-.7,1.15,1.15,0,0,0-.88-.35H95.15Zm92.21,4.21a32.37,32.37,0,0,1-.71,3.49c-.27,1.15-.7,1.92-4.14,2.2-1.63.13-2.95.19-4.02.19h0c-2.73,0-3.29-.42-3.77-.8-.44-.34-.48-1.33-.11-3.05.79-3.35,1.52-3.73,2.85-4.15a21.966,21.966,0,0,1,5.18-.48h1.17c2.3,0,2.93.06,3.28.52a2.885,2.885,0,0,1,.26,2.07Zm-80.53-2.12a21.418,21.418,0,0,0-5.17-.47H100.5c-2.3,0-2.93.06-3.28.52a2.974,2.974,0,0,0-.25,2.14c0,.21.25,1.48.7,3.41.27,1.15.7,1.92,4.14,2.2,1.63.13,2.95.19,4.02.19,2.73,0,3.29-.42,3.77-.8.44-.34.48-1.33.11-3.04-.8-3.36-1.53-3.74-2.87-4.16Z" fill="#b1b1b1"/>
      <path id="arka-tampon-2" data-name="arka-tampon" d="M182.67,326.47c-1.68.13-3.04.2-4.16.2-3.06,0-3.99-.52-4.81-1.15-1.33-1.02-1.12-2.98-.74-4.76a12.439,12.439,0,0,1,.97-2.88H110.78a12.832,12.832,0,0,1,.96,2.88c.39,1.79.6,3.75-.74,4.77-.82.63-1.75,1.15-4.81,1.15-1.12,0-2.48-.06-4.16-.2a9.114,9.114,0,0,1-3.87-.93l1.29,10.83a1.75,1.75,0,0,0,1.51,1.26h82.78a1.744,1.744,0,0,0,1.51-1.28l1.29-10.81a9.266,9.266,0,0,1-3.87.93Zm-22.91-1.36-1.52,1.65a5.4,5.4,0,0,1-3.15,1.77H130.56a5.4,5.4,0,0,1-3.15-1.76l-1.56-1.69c-.34-.36-.65-.66-.91-.91-.77-.76-1.09-1.08-.96-1.42.15-.36.72-.36,2.19-.36H157c2.09,0,3.41.04,3.71.75.2.47-.1,1.08-.97,1.98Z" fill="#fff"/>
      <path id="arka-tampon-cizgi" d="M183.74,338.13H100.96a2.246,2.246,0,0,1-2-1.68l-1.36-11.4a.256.256,0,0,1,.41-.23,7.453,7.453,0,0,0,4.07,1.14c1.67.13,3.01.2,4.12.2,2.91,0,3.76-.47,4.51-1.05,1.11-.85.91-2.63.55-4.26a11.357,11.357,0,0,0-1.11-3.11.227.227,0,0,1,0-.25.249.249,0,0,1,.22-.13h63.99a.261.261,0,0,1,.22.13.275.275,0,0,1,0,.25,11.619,11.619,0,0,0-1.12,3.12c-.35,1.62-.56,3.41.55,4.26.75.57,1.6,1.05,4.51,1.05,1.11,0,2.46-.06,4.12-.2a7.453,7.453,0,0,0,4.07-1.14.256.256,0,0,1,.41.23l-1.36,11.37a2.252,2.252,0,0,1-2,1.7ZM98.16,325.54l1.29,10.83a1.75,1.75,0,0,0,1.51,1.26h82.78a1.744,1.744,0,0,0,1.51-1.28l1.29-10.81a9.266,9.266,0,0,1-3.87.93c-1.68.13-3.04.2-4.16.2-3.06,0-3.99-.52-4.81-1.15-1.33-1.02-1.12-2.98-.74-4.76a12.439,12.439,0,0,1,.97-2.88H110.78a12.832,12.832,0,0,1,.96,2.88c.39,1.79.6,3.75-.74,4.77-.82.63-1.75,1.15-4.81,1.15-1.12,0-2.48-.06-4.16-.2a9.114,9.114,0,0,1-3.87-.93Zm56.93,2.99H130.56a5.4,5.4,0,0,1-3.15-1.76l-1.56-1.69c-.34-.36-.65-.66-.91-.91-.77-.76-1.09-1.08-.96-1.42.15-.36.72-.36,2.19-.36H157c2.09,0,3.41.04,3.71.75.2.47-.1,1.08-.97,1.98l-1.52,1.65a5.4,5.4,0,0,1-3.15,1.77Zm-30.59-5.58a8.655,8.655,0,0,0,.81.86c.26.26.57.56.92.93l1.56,1.69a5.028,5.028,0,0,0,2.78,1.6H155.1a5.053,5.053,0,0,0,2.78-1.61l1.53-1.65c.9-.93.93-1.3.87-1.44-.19-.45-1.88-.46-3.25-.45H126.2a10.5,10.5,0,0,0-1.69.07Z" fill="#b1b1b1"/>
      <circle id="arkatampon-ikon" cx="10" cy="10" r="10" transform="translate(133.4 317.75)" fill="#fff"/>
    </g>
    <g id="ON-TAMPON">
      <path id="ontampon-parca-hat" d="M189.58,26.13H95.16a1.613,1.613,0,0,1-1.26-.52,1.346,1.346,0,0,1-.3-1.1c.35-2.44.72-5.58,1.08-8.62.56-4.74,1.14-9.65,1.7-12.36a4.841,4.841,0,0,1,4.63-3.54h82.72a4.841,4.841,0,0,1,4.63,3.54c.57,2.72,1.16,7.79,1.74,12.69.37,3.14.72,6.11,1.04,8.28a1.372,1.372,0,0,1-.3,1.1,1.62,1.62,0,0,1-1.27.52ZM101.02.5a4.31,4.31,0,0,0-4.14,3.14c-.56,2.69-1.14,7.58-1.69,12.32-.36,3.04-.73,6.19-1.08,8.63a.859.859,0,0,0,.19.7,1.15,1.15,0,0,0,.88.35H189.6a1.123,1.123,0,0,0,.89-.35.859.859,0,0,0,.19-.7c-.32-2.17-.67-5.14-1.04-8.29-.58-4.89-1.17-9.95-1.73-12.65A4.319,4.319,0,0,0,183.77.51H101.05Zm8.27,9.12c-1.95.23-2.82.53-4.48,2.65-.8,1.05-.88,1.8-.38,2.33a2.206,2.206,0,0,0,1.57.57c.43,0,.87-.02,1.31-.04,4.07-.25,8.93-1.08,10.78-2.04,1.26-.69,1.53-1.41,1.49-1.89a1.761,1.761,0,0,0-1.25-1.4,11.841,11.841,0,0,0-3.44-.36,45.475,45.475,0,0,0-5.61.19Zm60.35-.19a11.356,11.356,0,0,0-3.44.36,1.774,1.774,0,0,0-1.25,1.4c-.03.49.23,1.2,1.49,1.89,1.84.96,6.7,1.8,10.78,2.04.44.02.88.04,1.31.04a2.252,2.252,0,0,0,1.57-.57c.5-.53.42-1.28-.38-2.33-1.66-2.11-2.53-2.42-4.48-2.65a43.572,43.572,0,0,0-5.61-.19Z" fill="#b1b1b1"/>
      <path id="ontampon" d="M185.25,4.14a1.761,1.761,0,0,0-1.51-1.27H101.02a1.744,1.744,0,0,0-1.51,1.28L97.3,22.63h90.16L185.25,4.14ZM119.08,14.18c-2.29,1.22-7.64,2.05-11.75,2.23-.4.01-.79.02-1.18.02h-.25a4.128,4.128,0,0,1-2.92-1.15c-.99-1.02-.86-2.43.33-3.87,1.96-2.43,3.22-2.97,5.79-3.27a49.7,49.7,0,0,1,5.86-.23c3.03.07,3.63.27,4.02.4l.07.02a3.239,3.239,0,0,1,2.3,2.59c.05.57-.06,2.04-2.27,3.26Zm41.68,1.28c-.15.36-.71.36-2.19.36H127.74c-2.11,0-3.41-.04-3.71-.75-.2-.47.1-1.08.97-1.98l1.52-1.65a5.4,5.4,0,0,1,3.15-1.77H154.2a5.4,5.4,0,0,1,3.15,1.76l1.56,1.69c.34.36.65.66.91.92.77.76,1.09,1.08.96,1.41Zm20.8-.18a4.128,4.128,0,0,1-2.92,1.15h-.25c-.39,0-.78,0-1.17-.02-4.11-.19-9.46-1.02-11.75-2.23-2.21-1.22-2.33-2.69-2.28-3.27a3.214,3.214,0,0,1,2.29-2.58l.07-.02c.39-.13.99-.33,4.02-.4a51.855,51.855,0,0,1,5.86.23c2.56.3,3.82.84,5.79,3.27,1.2,1.44,1.32,2.85.33,3.87Z" fill="#fff"/>
      <path id="ontampon-cizgi" d="M187.74,23.13H97.02a.273.273,0,0,1-.19-.08.232.232,0,0,1-.06-.2L99.01,4.07a2.252,2.252,0,0,1,2-1.7h82.72a2.254,2.254,0,0,1,2,1.69l2.25,18.79a.3.3,0,0,1-.06.2.273.273,0,0,1-.19.08Zm-90.44-.5h90.16L185.25,4.14a1.761,1.761,0,0,0-1.51-1.27H101.02a1.744,1.744,0,0,0-1.51,1.28Zm61.27-6.81H127.74c-2.11,0-3.41-.04-3.71-.75-.2-.47.1-1.08.97-1.98l1.52-1.65a5.4,5.4,0,0,1,3.15-1.77H154.2a5.4,5.4,0,0,1,3.15,1.76l1.56,1.69c.34.36.65.66.91.92.77.76,1.09,1.08.96,1.41-.15.36-.71.36-2.19.36Zm-28.91-5.64a5.053,5.053,0,0,0-2.78,1.61l-1.53,1.65c-.9.93-.93,1.3-.87,1.44.19.45,1.89.45,3.25.45h30.83a10.5,10.5,0,0,0,1.69-.07,9.567,9.567,0,0,0-.8-.86c-.26-.26-.57-.56-.92-.93l-1.56-1.69a5.028,5.028,0,0,0-2.78-1.6H129.66Zm30.63,5.14Zm-54.14,1.11h-.25a4.128,4.128,0,0,1-2.92-1.15c-.99-1.02-.86-2.43.33-3.87,1.96-2.43,3.22-2.97,5.79-3.27a49.7,49.7,0,0,1,5.86-.23h0c3.03.07,3.63.27,4.02.4l.07.02a3.239,3.239,0,0,1,2.3,2.59c.05.57-.06,2.04-2.27,3.26-2.29,1.22-7.64,2.05-11.75,2.23-.4.01-.79.02-1.18.02Zm7.94-8.03c-1.93,0-4.01.13-4.93.24-2.46.29-3.59.77-5.46,3.09-.6.72-1.44,2.09-.36,3.21a3.663,3.663,0,0,0,2.56,1c.46,0,.93,0,1.4-.02,4.05-.19,9.31-.99,11.53-2.17,2-1.11,2.05-2.41,2.01-2.78a2.724,2.724,0,0,0-1.96-2.15l-.06-.02a13.391,13.391,0,0,0-3.88-.38h-.86Zm64.3,8.03c-.39,0-.78,0-1.17-.02-4.11-.19-9.46-1.02-11.75-2.23-2.21-1.22-2.33-2.69-2.28-3.27a3.214,3.214,0,0,1,2.29-2.58l.07-.02c.39-.13.99-.33,4.02-.4h0a51.855,51.855,0,0,1,5.86.23c2.56.3,3.82.84,5.79,3.27,1.2,1.44,1.32,2.85.33,3.87a4.128,4.128,0,0,1-2.92,1.15h-.25Zm-8.8-8.02c-2.96.07-3.54.26-3.88.38l-.07.02a2.728,2.728,0,0,0-1.95,2.15c-.03.38.01,1.68,2.02,2.79,2.21,1.18,7.48,1.99,11.53,2.17.47.02.94.03,1.4.02a3.663,3.663,0,0,0,2.56-1c1.08-1.12.24-2.49-.36-3.21-1.87-2.32-3.01-2.8-5.46-3.09a49.327,49.327,0,0,0-5.79-.23h0Z" fill="#b1b1b1"/>
      <circle id="ontampon-ikon" cx="10" cy="10" r="10" transform="translate(133.4 2.75)" fill="#fff"/>
    </g>
  </g>
</svg>
