<svg xmlns="http://www.w3.org/2000/svg" width="324.289" height="52.381" viewBox="0 0 324.289 52.381">
  <g id="suvmarket" transform="translate(0 0)">
    <path id="Path_35" data-name="Path 35" d="M87.737,15.787A15.811,15.811,0,0,1,74.592,31.348a18.213,18.213,0,0,0-3.881-6.917,8.734,8.734,0,1,0-7.5-8.644,8.685,8.685,0,0,0,.959,3.968A18.171,18.171,0,0,0,57.1,18.331c-.246,0-.486.009-.729.018a15.786,15.786,0,1,1,31.363-2.562M72.065,31.571A15.785,15.785,0,1,1,56.987,20.807H57.1a15.687,15.687,0,0,1,6.6,1.446l5.94-8.565A3.08,3.08,0,0,1,74.7,17.2l-6.017,8.68a15.8,15.8,0,0,1,3.384,5.693m-6.231,5.022a8.685,8.685,0,0,0-1.352-4.66l-4.629,6.678a3.081,3.081,0,0,1-5.065-3.51l4.776-6.887a8.734,8.734,0,1,0,6.27,8.38M44.416,23.474a15.785,15.785,0,1,0-29.569-7.689,15.865,15.865,0,0,0,.209,2.563c.243-.01.486-.019.729-.019a18.16,18.16,0,0,1,7.072,1.427A8.766,8.766,0,1,1,29.4,24.43a18.251,18.251,0,0,1,3.88,6.917,15.833,15.833,0,0,0,11.141-7.873m-13.666,8.1A15.785,15.785,0,1,1,15.671,20.807h.115a15.7,15.7,0,0,1,6.289,1.31L28.1,13.426a3.08,3.08,0,0,1,5.062,3.51l-6.031,8.7a15.807,15.807,0,0,1,3.617,5.936m-6.231,5.022a8.688,8.688,0,0,0-1.547-4.956l-4.653,6.712a3.081,3.081,0,0,1-5.065-3.51l4.659-6.718a8.734,8.734,0,1,0,6.607,8.473" transform="translate(0 0.001)" fill="#fc5003"/>
    <path id="Path_36" data-name="Path 36" d="M260.489,62.756c0,3.816-2.748,7.888-10.457,7.888-8.649,0-10.595-5.032-10.983-8.036l-.03-.235h6.268l.041.153c.567,2.166,2.269,3.316,4.92,3.316,2.529,0,3.76-.869,3.76-2.656,0-1.7-1.037-2.422-4.843-3.351-7.7-1.89-9.211-4.322-9.211-7.893,0-3.617,2.58-7.484,9.824-7.484,7.04,0,9.834,3.877,10.1,7.5l.015.225h-6.074l-.036-.164c-.439-1.9-1.875-2.861-4.271-2.861-2.11,0-3.275.812-3.275,2.289,0,1.241.675,1.921,4.858,2.906,7.857,1.839,9.395,4.475,9.395,8.4m25.464-.055V45.031h-6.375V58.257c0,5.129-1.3,7.04-4.812,7.04-2.707,0-4.025-1.7-4.025-5.175V45.031h-6.355v16.3c0,5.921,3.06,9.313,8.4,9.313,3.213,0,5.4-1.017,6.82-3.188.036,1,.082,1.92.158,2.437l.026.178H286L286,69.858c-.031-1.951-.046-4.776-.046-7.157m91.553,7.115.056.256h-6.094l-.056-.138a9.673,9.673,0,0,1-.343-2.11c-1.4,1.9-3.688,2.82-6.973,2.82-5.936,0-8.6-3.949-8.6-7.862,0-5.456,4.118-8.342,11.9-8.342h3.535v-1.5c0-1.594-.424-3.714-4.092-3.714-3.213,0-3.754,1.43-4.1,3.157l-.03.169h-6.09l.02-.23c.317-3.586,2.36-7.867,10.314-7.867,6.907.036,10.212,2.83,10.212,8.546V63.835a48.793,48.793,0,0,0,.332,5.982M370.951,58.6h-2.973c-4.194,0-6.064,1.175-6.064,3.821,0,2.13,1.441,3.453,3.754,3.453,4.383,0,5.282-2.713,5.282-6.789Zm-65.227-10.09c-2.038,6.294-3.826,11.806-4.557,15.1-.674-3.024-2.34-8.946-5.18-18.427l-.041-.148h-6.851l8.567,25.037h6.631l8.966-25.037h-6.411Zm37.491-4.05a8.72,8.72,0,0,0-7.632,3.75,6.856,6.856,0,0,0-6.549-3.75,7.854,7.854,0,0,0-6.764,3.347c-.046-.976-.143-2.069-.209-2.59l-.021-.184h-6.1l.005.215c.046,2.069.046,4.24.046,6.345V70.073H322.3V56.152c0-4.291,1.461-6.375,4.47-6.375,2.585,0,3.74,1.5,3.74,4.863V70.073h6.258V55.764c0-4.107,1.395-6.024,4.394-6.024,3.157,0,3.816,2.55,3.816,4.685V70.073h6.242V53.7c0-5.788-2.993-9.242-8-9.242M389.7,48.846c-.02-1.507-.087-3.132-.158-3.632l-.025-.179h-6.232l0,.209c.031,1.808.046,3.9.046,6.682V70.072h6.37V58.72c0-5.757,2.227-8.1,7.688-8.1h.348V44.458h-.215c-3.586.051-6.391,1.635-7.827,4.388m34.5-3.814H416.72l-.061.072c-1.129,1.318-2.324,2.692-3.489,4.031-2.1,2.421-4.107,4.725-5.405,6.349V34.621H401.39V70.07h6.375v-8.3l3.08-2.983,6.846,11.279h7.3l-9.829-15.407Zm24.012,11.682a16.907,16.907,0,0,1-.082,2.09l-.02.184H431.511c.071,3.05,1.5,6.5,5.328,6.5,3.131,0,4.021-1.43,4.659-2.9l.051-.128h6.391l-.082.271c-.873,2.952-3.489,7.908-11.183,7.908-8.552,0-11.586-6.876-11.586-12.767,0-8.281,4.536-13.421,11.842-13.421,10.462,0,11.275,9.38,11.275,12.256M441.8,54.783c-.067-1.824-.721-5.538-4.9-5.538-3.06,0-4.818,1.859-5.226,5.538Zm23.684-4.765V45.032h-5.027V38.166h-6.375v6.866h-3.949v4.986h3.949V63.592c0,4.649,2.007,6.815,6.309,6.815a14.6,14.6,0,0,0,4.348-.475l.143-.051V65.288l-.25.051a10.071,10.071,0,0,1-1.711.112c-1.865,0-2.462-.659-2.462-2.728V50.018Z" transform="translate(-141.195 -27.265)" fill="#fc5003"/>
  </g>
</svg>
